<svg version="1.1" id="Capa_1" xmlns="http://www.w3.org/2000/svg" xmlns:xlink="http://www.w3.org/1999/xlink" x="0px" y="0px"
	 viewBox="0 0 479.966 479.966" style="enable-background:new 0 0 479.966 479.966;" xml:space="preserve">
<g>
	<g>
		<path d="M332.423,317.9c-100.1,0-181.5-81.4-181.5-181.5c0-15.8,2-31.6,6.1-46.9c-47.7,29.4-76.7,81.4-76.7,137.4
			c0,89,72.4,161.5,161.5,161.5c56,0,108.1-29,137.5-76.6C364.023,315.9,348.223,317.9,332.423,317.9z"/>
	</g>
</g>
<g>
	<g>
		<path d="M349.223,30.8c-1.5-1.6-3.6-2.6-5.7-2.9l-21.4-3.1l-9.6-19.3c-1.7-3.4-5.2-5.5-9-5.5s-7.3,2.1-9,5.5l-9.6,19.4l-21.4,3.1
			c-5.5,0.8-9.3,5.8-8.5,11.3c0.3,2.2,1.3,4.2,2.9,5.7l15.5,15l-3.6,21.3c-0.9,5.4,2.7,10.6,8.2,11.5c2.2,0.4,4.4,0,6.3-1l19.2-10.1
			l19.1,10.1c4.9,2.6,10.9,0.7,13.5-4.2c1-1.9,1.4-4.2,1-6.3l-3.6-21.3l15.5-15.1C353.023,41,353.023,34.7,349.223,30.8z"/>
	</g>
</g>
<g>
	<g>
		<path d="M94.523,33.9c-1.5-1.6-3.6-2.6-5.7-2.9l-19.2-2.8l-8.7-17.6c-1.7-3.4-5.1-5.6-9-5.7c-3.8,0.1-7.3,2.3-9,5.7l-8.6,17.5
			l-19.3,2.8c-5.5,0.8-9.3,5.9-8.5,11.4c0.3,2.2,1.3,4.2,2.9,5.7l13.9,13.6l-3.2,19.2c-0.9,5.4,2.7,10.6,8.2,11.5
			c2.2,0.4,4.4,0,6.3-1l17.2-9.1l17.3,9.1c4.9,2.6,10.9,0.7,13.5-4.2c1-1.9,1.4-4.2,1-6.3l-3.3-19.2l14-13.6
			C98.323,44.1,98.323,37.8,94.523,33.9z"/>
	</g>
</g>
<g>
	<g>
		<path d="M470.723,404.5c-1.5-1.5-3.5-2.5-5.7-2.8l-29.1-4.2l-13-26.2c-1.7-3.4-5.2-5.4-9-5.4c-3.8-0.1-7.3,2-9,5.3l-13.1,26.3
			l-29.1,4.2c-5.4,0.8-9.2,5.8-8.5,11.3c0.3,2.2,1.3,4.2,2.9,5.7l21.1,20.6l-5,29c-0.9,5.4,2.7,10.6,8.2,11.5c2.2,0.4,4.4,0,6.3-1
			l26.1-13.7l26.1,13.7c4.9,2.6,10.9,0.7,13.5-4.2c1-1.9,1.4-4.2,1-6.3l-5-29.1l21.1-20.6
			C474.523,414.7,474.523,408.4,470.723,404.5z"/>
	</g>
</g>
<g>
	<g>
		<path d="M401.723,179.6c-1.5-1.6-3.5-2.6-5.7-2.9l-33.3-4.8l-14.9-30.1c-1.7-3.4-5.1-5.6-8.9-5.6s-7.3,2.2-9,5.6l-14.9,30.1
			l-33.2,4.8c-5.5,0.8-9.3,5.9-8.5,11.3c0.3,2.2,1.3,4.2,2.9,5.7l24.1,23.5l-5.7,33.2c-0.9,5.4,2.7,10.6,8.2,11.5
			c2.2,0.4,4.4,0,6.3-1l29.7-15.6l29.7,15.6c4.9,2.6,10.9,0.7,13.5-4.2c1-1.9,1.4-4.2,1-6.3l-5.6-33.2l24.1-23.5
			C405.523,189.8,405.523,183.5,401.723,179.6z"/>
	</g>
</g>
<g>
	<g>
		<path d="M98.723,399.5c-1.4-1.6-3.4-2.6-5.5-2.9l-18.7-2.7l-8.3-16.7c-1.7-3.4-5.2-5.4-9-5.3c-3.8-0.1-7.2,2-9,5.3l-8.4,16.8
			l-18.7,2.7c-5.4,0.8-9.2,5.8-8.5,11.3c0.3,2.2,1.3,4.2,2.9,5.7l13.5,13.2l-3.2,18.6c-0.9,5.4,2.7,10.6,8.2,11.5
			c2.2,0.4,4.4,0,6.3-1l16.7-8.8l16.7,8.8c4.9,2.6,10.9,0.7,13.5-4.2c1-2,1.4-4.2,1-6.4l-3.2-18.6l13.5-13.2
			C102.523,409.7,102.523,403.4,98.723,399.5z"/>
	</g>
</g>
<g>
</g>
<g>
</g>
<g>
</g>
<g>
</g>
<g>
</g>
<g>
</g>
<g>
</g>
<g>
</g>
<g>
</g>
<g>
</g>
<g>
</g>
<g>
</g>
<g>
</g>
<g>
</g>
<g>
</g>
</svg>
