<svg version="1.1" id="Capa_1" xmlns="http://www.w3.org/2000/svg" xmlns:xlink="http://www.w3.org/1999/xlink" x="0px" y="0px"
	 viewBox="0 0 469.344 469.344" style="enable-background:new 0 0 469.344 469.344;" xml:space="preserve">
<g>
	<g>
		<path d="M234.672,127.691c-58.91,0-106.667,47.756-106.667,106.667c0,58.91,47.756,106.667,106.667,106.667
			s106.667-47.756,106.667-106.667C341.339,175.447,293.582,127.691,234.672,127.691z M234.672,298.357c-35.346,0-64-28.654-64-64
			c0-35.346,28.654-64,64-64s64,28.654,64,64C298.672,269.704,270.018,298.357,234.672,298.357z"/>
	</g>
</g>
<g>
	<g>
		<rect x="213.339" width="42.667" height="85.333"/>
	</g>
</g>
<g>
	<g>
		<rect x="213.339" y="384.011" width="42.667" height="85.333"/>
	</g>
</g>
<g>
	<g>
		<rect x="384.005" y="213.333" width="85.333" height="42.667"/>
	</g>
</g>
<g>
	<g>
		<rect x="0.005" y="213.344" width="85.333" height="42.667"/>
	</g>
</g>
<g>
	<g>
		<rect x="327.453" y="77.3" transform="matrix(0.7071 -0.7071 0.7071 0.7071 38.6615 290.6031)" width="85.334" height="42.667"/>
	</g>
</g>
<g>
	<g>
		
			<rect x="55.925" y="348.795" transform="matrix(0.7071 -0.7071 0.7071 0.7071 -232.8435 178.1236)" width="85.334" height="42.667"/>
	</g>
</g>
<g>
	<g>
		
			<rect x="348.741" y="327.403" transform="matrix(0.7071 -0.7071 0.7071 0.7071 -153.2864 370.0728)" width="42.667" height="85.334"/>
	</g>
</g>
<g>
	<g>
		<rect x="77.26" y="55.933" transform="matrix(0.7071 -0.7071 0.7071 0.7071 -40.8431 98.5952)" width="42.667" height="85.334"/>
	</g>
</g>
<g>
</g>
<g>
</g>
<g>
</g>
<g>
</g>
<g>
</g>
<g>
</g>
<g>
</g>
<g>
</g>
<g>
</g>
<g>
</g>
<g>
</g>
<g>
</g>
<g>
</g>
<g>
</g>
<g>
</g>
</svg>
